<svg width="375" height="298" viewBox="0 0 375 298" fill="none" xmlns="http://www.w3.org/2000/svg">
<path d="M33.2632 246.337C2.26475 244.119 3.54942 218.078 1.92999 193.342C-1.61503 139.196 0.386236 90.8899 2.65743 37.2145C3.24034 23.4377 6.4502 11.6422 21.675 6.7448C27.1274 4.99141 32.9288 5.09604 38.5946 4.81049L55.7597 4.08684L215.522 0.689588C231.948 0.590819 334.017 0.170318 346.282 6.5854C352.396 9.78316 356.385 15.4805 358.439 21.9532C360.455 36.0048 361.383 50.382 362.512 64.5343C366.298 112.02 367.677 159.829 364.158 207.371C363.008 222.908 359.472 236.855 340.607 239.312C329.085 240.813 313.806 241.258 302.069 241.787C296.808 242.024 291.282 241.923 286.069 242.67C264.951 243.08 243.871 245.144 222.737 245.144V248.044L222.756 248.311C224.25 266.565 260.371 294.128 220.532 296.047C200.8 296.999 179.863 297.906 160.128 297.998C125.603 298.159 135.524 286.972 142.232 263.897C143.627 259.1 144.475 254.391 145.414 249.503C145.564 248.744 145.719 248.391 145.465 247.649C144.311 246.992 124.851 247.338 121.857 247.308L44.4862 246.375C40.7607 246.318 36.9843 246.139 33.2632 246.337ZM353.934 204.583C354.167 202.152 354.747 199.879 355.084 197.483C326.109 202.705 285.26 203.14 255.697 204.215L164.541 207.356C153.954 207.632 143.44 207.758 132.843 207.758L89.2694 207.755C73.4374 207.752 57.621 207.747 41.7909 207.4L24.3999 207.009C20.7173 206.929 16.9579 206.677 13.2907 207.06C14.2748 217.744 14.2725 228.298 24.5589 234.236C30.6401 237.649 43.8788 236.222 50.7694 236.276L86.0614 236.68C163.452 237.671 240.597 235.412 317.837 230.456L332.245 229.526C351.602 228.286 352.545 223.244 353.934 204.583ZM211.962 248.044V246.337C200.545 245.312 183.946 246.633 172.291 246.962L162.253 247.186C158.657 247.252 156.3 246.004 155.874 249.503C154.107 258.756 151.932 268.073 148.678 276.921C147.93 278.956 145.205 284.92 145.687 286.787C149.248 290.485 206.106 286.481 213.63 286.411C237.41 286.188 229.977 285.311 221.785 272.132C217.178 264.719 213.83 256.57 211.962 248.044ZM218.133 11.3155C208.548 11.3097 198.9 11.1063 189.32 11.3331L78.8525 14.0713C66.6659 14.4967 54.4628 14.7783 42.2851 15.3631C10.9856 16.8662 14.4063 21.5718 12.8148 47.2439L10.8385 82.2501C9.65079 107.795 9.68457 133.528 10.4154 159.087C10.7676 171.402 12.0463 183.697 12.3916 196.004C21.7558 197.411 32.2199 196.579 41.7304 196.886C48.9696 197.12 56.1132 197.328 63.3515 197.358L147.203 197.483C151.157 197.505 155.08 197.181 159.029 197.081L189.311 196.235C237.445 194.897 285.68 193.374 333.694 189.56C339.555 189.094 349.023 188.618 354.488 187.313L354.653 187.143L354.496 186.956L354.714 186.861L354.749 186.635L354.469 186.57L354.445 186.213L354.814 186.058C357.563 135.76 354.477 85.1721 349.628 35.1022C347.904 17.3023 346.344 15.2819 327.005 13.7173C291.606 10.854 253.859 10.8041 218.133 11.3155Z" fill="#253017"/>
<path d="M358.439 21.9514C361.916 23.3156 364.873 26.2591 366.354 29.6877C368.386 34.3914 370.36 67.4926 370.998 77.1064L372.574 104.512C373.255 116.996 373.43 129.489 373.688 141.984C374.087 161.209 375.637 219.523 370.32 232.804C364.017 248.551 351.377 248.063 337.729 248.055L316.521 248.041C299.227 248.032 281.868 248.389 264.582 248.042H222.737V245.142C243.871 245.142 264.951 243.078 286.069 242.668C291.282 241.921 296.808 242.022 302.069 241.785C313.806 241.256 329.085 240.811 340.607 239.31C359.472 236.853 363.008 222.906 364.158 207.369C367.677 159.827 366.298 112.018 362.512 64.5325C361.383 50.3802 360.455 36.003 358.439 21.9514Z" fill="#508826"/>
<path d="M338.186 40.1208C338.178 37.6254 338.237 34.8989 337.393 32.5201C333.333 21.0744 316.448 28.2376 312.465 26.1307C311.426 25.5817 311.022 24.5232 311.777 23.5462C312.959 22.0151 319.221 22.3233 321.195 22.0877C330.898 21.3814 339.675 23.0437 341.767 34.0671C342.059 35.6109 343.011 44.2173 342.479 45.1535C340.179 49.194 338.317 42.2646 338.186 40.1208Z" fill="#253017"/>
<path d="M38.1073 189.296C33.0511 189.968 26.3579 191.112 21.7259 188.6C16.1313 185.565 17.2857 177.992 17.2302 172.73C17.2067 170.505 15.9581 167.289 18.9714 166.678C22.7576 166.946 19.8365 178.747 21.5621 182.974C24.3095 189.705 35.3295 184.437 38.5815 185.868C40.6932 186.797 40.0816 188.856 38.1073 189.296Z" fill="#253017"/>
<path d="M24.559 234.236C23.5773 229.379 18.5903 218.085 23.1579 213.95C24.4994 212.736 63.0938 213.647 67.7696 213.648L174.285 213.65C192.352 213.647 208.761 213.197 226.74 212.476L300.717 209.447C314.251 208.684 327.734 207.223 341.193 205.652C345.461 205.153 349.621 204.378 353.935 204.583C352.545 223.244 351.603 228.286 332.245 229.526L317.837 230.456C240.597 235.412 163.452 237.671 86.0616 236.681L50.7696 236.276C43.879 236.222 30.6403 237.649 24.559 234.236Z" fill="#ABD27A"/>
<path d="M211.962 248.045C199.104 250.015 168.731 250.017 155.874 249.504C156.3 246.005 158.657 247.253 162.253 247.187L172.291 246.963C183.946 246.634 200.545 245.313 211.962 246.338V248.045Z" fill="#ABD27A"/>
<path d="M33.2632 246.336C36.9843 246.137 40.7606 246.316 44.4862 246.374L121.857 247.307C124.85 247.336 144.311 246.99 145.465 247.647C145.719 248.389 145.564 248.742 145.414 249.501C121.008 250.292 96.37 250.402 71.952 250.071C61.3544 249.927 42.6522 252.09 33.2632 246.336Z" fill="#ABD27A"/>
<path d="M178.152 167.157C178.092 168.937 178.931 172.618 177.863 173.993C177.181 174.872 175.986 174.955 175.158 174.219C173.826 173.036 174.179 161.921 174.179 159.979C174.178 156.047 173.07 153.121 178.152 152.874C181.708 151.312 188.496 154.798 187.488 160.022C186.925 162.938 184.541 164.396 182.255 165.933C183.971 167.146 188.192 170.489 188.785 172.563C188.02 175.428 186.095 174.263 184.434 172.961C182.448 170.944 180.336 168.955 178.152 167.157ZM179.099 156.892H178.152C178.137 160.592 176.741 164.902 181.635 161.867C185.882 159.262 183.756 155.893 179.099 156.892Z" fill="#253017"/>
<path d="M146.848 172.085C149.087 172.145 152.276 171.725 154.154 171.889C155.376 171.995 155.946 173.919 155.157 174.774C153.663 176.393 145.313 176.223 143.573 174.679C141.14 172.519 141.677 162.916 141.482 159.29C141.28 155.522 142.941 153.048 146.848 152.877C149.164 152.513 157.977 153.285 153.27 156.894C145.936 156.936 144.402 153.892 145.626 162.86C147.004 162.746 151.589 162.511 152.626 163.288C153.712 164.102 153.294 165.976 152.035 166.387C150.624 166.847 147.277 166.493 145.626 166.551C145.612 168.026 144.978 171.963 146.848 172.085Z" fill="#253017"/>
<path d="M161.881 167.751C161.921 169.07 162.694 174.178 160.934 174.661C159.668 175.009 158.491 174.591 158.241 173.206C157.895 171.288 157.449 155.694 158.35 154.466C159.14 153.39 160.856 153.092 162.093 152.876C167.066 152.239 173.277 155.41 171.264 161.162C170.356 163.758 168.095 164.832 165.786 165.934C167.3 168.592 170.722 170.013 171.742 172.962C170.994 175.521 169.26 175.098 167.69 173.568C165.758 171.627 163.844 169.661 161.881 167.751ZM162.618 156.894C161.174 157.216 161.874 161.494 161.881 163.111C163.317 162.9 164.512 162.574 165.786 161.868C170.262 158.611 166.397 156.913 162.618 156.894Z" fill="#253017"/>
<path d="M199.772 174.09C194.039 174.275 189.242 169.768 189.061 164.027C188.88 158.285 193.384 153.485 199.118 153.308C204.846 153.131 209.634 157.635 209.815 163.372C209.995 169.108 205.5 173.905 199.772 174.09ZM198.979 157.361C190.047 158.754 191.955 171.799 200.214 170.058C207.93 168.532 207.406 155.907 198.979 157.361Z" fill="#253017"/>
<path d="M212.857 174.166C212.22 173.856 211.662 173.449 211.403 172.765C211.117 172.008 211.776 155.287 212.051 154.83C212.642 153.848 214.141 153.699 215.153 153.532C223.38 152.902 227.973 159.542 219.135 165.301C220.383 166.781 223.137 169.211 223.991 170.647C224.728 171.887 223.543 175.364 220.124 172.082C218.895 170.691 217.309 168.886 215.873 167.735L215.153 167.155C215.26 170.066 216.055 173.023 212.857 174.166ZM215.557 157.359C215.561 159.184 215.467 161.037 215.557 162.857C216.511 162.287 217.513 161.747 218.421 161.106C222.067 158.365 218.307 157.189 215.557 157.359Z" fill="#253017"/>
<path d="M127.025 117.624C126.826 113.68 127.284 109.684 126.961 105.767C125.085 104.463 100.429 110.702 92.2313 106.271C83.1132 101.343 92.0238 91.4799 95.368 85.8919L112.468 57.5511C116.342 51.1411 121.023 42.0468 128.799 40.1283C138.734 38.9593 136.908 49.3282 136.82 55.7415C136.67 66.5911 135.085 83.9743 136.813 94.3869C139.464 94.3836 149.388 94.0035 147.239 99.2338C146.353 101.393 139.094 102.832 136.813 103.603C137.062 110.405 140.103 132.203 134.288 137.054C132.11 138.871 129.359 137.18 128.014 135.17C125.241 131.026 126.061 122.381 127.025 117.624ZM127.771 48.5475C122.786 52.4363 119.776 59.7573 116.811 65.1689C115.718 67.1657 98.0306 99.0013 98.0298 99.007C97.9705 99.3706 98.341 99.4465 98.6522 99.519C108.38 99.1728 118.229 97.6665 127.771 95.7431C126.926 88.1212 129.429 51.7339 128.042 48.6868L127.677 48.6184L127.847 48.5887L127.771 48.5475Z" fill="#253017"/>
<path d="M258.054 104.53C248.443 105.896 234.346 111.097 225.814 106.511C213.503 99.8953 230.91 80.0453 235.65 72.7788C240.448 65.4231 253.321 42.376 261.784 40.1311C263.663 40.2449 265.832 40.7799 267.29 42.0298C273.678 47.5106 267.559 82.6357 268.264 94.3897C270.6 93.6419 275.589 93.0879 276.855 95.9446C279.426 101.747 271.377 102.025 267.923 103.454L267.56 103.606C267.459 109.871 268.073 132.306 264.528 135.644C261.282 138.7 257.399 135.057 256.728 131.683C255.903 127.527 256.723 119.843 257.138 115.425C257.273 111.794 257.729 108.151 258.054 104.53ZM260.506 48.5502C253.741 54.4211 229.037 97.2455 230.892 99.4839L231.203 99.5218C238.265 100.284 251.229 96.7229 259.097 95.7459C259.746 89.5404 262.022 50.2824 260.506 48.5502Z" fill="#253017"/>
<path d="M188.319 133.992C172.136 138.722 161.175 126.806 158.362 111.808C155.718 97.7106 158.428 61.7652 166.559 49.9906C169.827 45.2567 174.644 43.0143 180.17 42.0381C193.18 40.6588 204.041 48.4885 208.258 60.7075C213.084 74.6916 212.546 105.45 206.055 118.753C202.509 126.02 195.891 131.393 188.319 133.992ZM182.817 50.5545C168.382 52.4928 167.307 89.3327 167.217 99.9935C167.117 111.959 169.963 130.139 186.106 124.705C206.038 116.997 203.944 75.3519 198.11 60.3876C195.825 54.5267 189.348 49.6163 182.817 50.5545Z" fill="#253017"/>
</svg>
