<svg width="300" height="300" viewBox="0 0 300 300" fill="none" xmlns="http://www.w3.org/2000/svg">
<path d="M147.803 29.8532C147.832 29.8271 147.86 29.8007 147.889 29.7749L148.034 29.6471C150.499 27.4361 152.897 28.3745 153.322 31.4797C153.205 35.1465 154.229 46.1729 152.154 48.5735C146.079 51.576 147.793 41.4259 147.798 38.3872C147.803 35.5636 147.621 32.6637 147.803 29.8532Z" fill="#253017"/>
<path d="M153.322 31.4797C159.887 30.8044 159.325 34.9337 159.152 40.2314C159.053 43.2479 159.111 46.9914 156.947 49.3998C155.465 51.0484 153.117 50.5133 152.155 48.5735C154.229 46.1729 153.205 35.1465 153.322 31.4797Z" fill="#ABD27A"/>
<path d="M182.096 57.2079C173.041 59.0636 184.698 42.422 185.851 40.7299C187.412 38.439 189.559 38.9496 190.862 41.0992C190.969 44.1608 184.18 55.2032 182.096 57.2079Z" fill="#253017"/>
<path d="M120.612 56.3401C119.623 57.0776 118.666 57.9186 117.332 57.6577C115.554 57.3098 110.453 46.3775 109.561 43.7264C108.769 41.3716 112.248 36.5861 115.714 43.6943C116.853 46.4321 121.734 54.0367 120.612 56.3401Z" fill="#253017"/>
<path d="M190.862 41.0994C199.716 41.567 187.839 58.9876 186.919 59.6661C184.681 61.3161 182.481 59.4926 182.096 57.2081C184.18 55.2034 190.969 44.1609 190.862 41.0994Z" fill="#ABD27A"/>
<path d="M115.714 43.6941C119.29 42.961 123.097 52.6346 123.318 54.3124C123.524 55.88 121.822 56.2998 120.612 56.3399C121.734 54.0366 116.853 46.4319 115.714 43.6941Z" fill="#ABD27A"/>
<path d="M218.501 61.6196C216.882 62.2812 207.606 69.5438 206.876 71.1329C205.885 73.2909 208.152 75.6622 210.289 74.6204C212.185 73.6958 220.213 66.7226 221.637 65.0427C226.864 71.0415 212.704 84.412 205.171 78.7993C195.465 71.5683 209.607 54.7332 218.501 61.6196Z" fill="#ABD27A"/>
<path d="M82.6196 62.3262C87.63 59.3819 100.042 70.9049 93.5854 73.4467C94.0114 69.6774 85.5921 64.152 82.6196 62.3262Z" fill="#ABD27A"/>
<path d="M221.637 65.0427C220.213 66.7226 212.186 73.6958 210.289 74.6204C208.152 75.6622 205.886 73.2909 206.876 71.1329C207.606 69.5438 216.882 62.2812 218.501 61.6196C220.7 61.8798 221.668 62.7845 221.637 65.0427Z" fill="#253017"/>
<path d="M93.5852 73.4468C93.1241 74.546 91.9874 75.446 90.7399 75.1583C89.7433 74.9286 79.4308 66.9792 79.064 66.1853C77.8487 63.5573 80.0003 61.1116 82.6194 62.3263C85.5919 64.1521 94.0112 69.6775 93.5852 73.4468Z" fill="#253017"/>
<path d="M121.113 215.204C119.761 212.045 119.783 208.567 119.044 205.253C115.893 191.124 109.206 183.364 100.566 172.467C91.0658 160.485 84.8677 145.706 84.2601 130.319C82.8099 93.5958 110.048 63.7036 146.934 62.3261C195.546 60.3146 229.856 109.478 211.265 154.158C203.074 173.845 184.796 183.347 181.361 206.145C180.897 209.225 180.816 212.202 179.861 215.204C183.027 219.036 183.241 223.128 181.456 227.728C183.279 232.457 184.032 235.401 180.322 239.784C183.371 248.911 172.195 255.102 165.013 256.874C163.747 263.853 159.356 266.433 153.615 269.087C144.509 269.601 137.663 265.999 134.972 256.874C128.212 253.253 118.09 251.944 120.612 241.074C118.052 237.231 116.619 233.122 119.16 228.761C116.51 223.965 116.647 218.879 121.113 215.204ZM191.715 167.594C203.386 153.835 208.419 140.238 206.954 122.171C204.435 91.1108 173.443 65.9132 142.651 68.5077C109.656 71.288 87.1418 100.563 90.0814 133.055C92.9941 165.24 116.427 174.407 124.092 202.666C124.771 205.17 124.793 208.745 126.882 210.502C130.861 213.85 136.878 215.354 141.95 215.9C141.174 205.919 141.429 191.575 139.695 182.269C139.969 173.512 137.812 161.043 136.461 152.412C135.993 149.419 134.655 146.132 134.972 143.11C133.003 143.13 130.982 143.224 129.018 143.086C104.7 141.39 104.219 115.552 119.506 115.777C130.976 115.946 135.661 128.152 138.245 137.372C140.751 136.449 143.234 135.496 145.642 134.34C132.059 105.5 173.657 107.76 153.322 135.245C156.545 139.151 162.489 142.16 167.396 143.11C170.062 137.591 172.747 131.123 178.98 128.91C193.682 123.688 198.191 148.326 171.065 148.644C168.279 156.554 160.707 179.302 161.03 187.486C159.708 198.331 160.514 205.567 161.03 215.9C164.921 214.879 168.544 214.026 172.057 211.955C172.402 204.588 173.641 197.357 176.127 190.408C178.668 184.965 181.825 179.886 185.563 175.179C187.229 173.081 190.65 169.754 191.715 167.594ZM139.695 142.122C140.215 145.829 141.226 149.478 141.881 153.167C143.392 161.675 145.201 175.607 145.068 184.082C146.712 193.23 146.658 206.469 147.567 216.357H155.808C155.027 206.918 153.977 196.243 155.808 186.84C156.827 173.414 161.525 160.926 165.535 148.229C158.457 146.534 153.885 143.156 148.567 138.387C145.734 140.134 142.839 141.084 139.695 142.122ZM157.793 225.074C145.339 224.644 137.686 225.521 125.694 218.858C117.9 223.383 125.945 226.533 128.448 228.381C133.028 231.764 147.774 230.231 153.615 230.669C157.629 230.83 183.037 228.336 176.127 219.302C172.643 221.082 169.345 222.486 165.535 223.406C163.13 223.987 159.95 223.881 157.793 225.074ZM157.793 235.417C150.39 236.002 134.36 233.609 128.625 228.761C118.953 232.775 123.164 236.856 130.331 239.462C128.653 240.106 126.893 240.939 126.142 242.702C123.009 250.062 143.815 252.746 147.803 252.663C149.57 253.054 151.537 252.837 153.322 252.663C159.995 252.81 173.278 250.788 175.179 242.759C169.356 244.81 163.981 246.166 157.793 246.639C150.478 246.783 143.82 245.629 136.874 243.37C136.041 243.098 131.545 241.68 131.199 241.233C138.584 242.773 146.292 240.71 152.154 241.843C158.573 241.28 179.453 240.973 176.961 230.924C170.88 233.639 164.481 235.306 157.793 235.417ZM150.871 118.645C147.26 120.503 147.974 125.233 148.781 128.482C148.928 129.073 149.303 132.023 150.22 130.6C151.806 128.124 157.242 118.77 150.871 118.645ZM118.672 121.028C115.223 121.725 113.402 124.561 114.273 128.01C116.023 134.94 123.179 136.204 128.625 138.161C130.128 138.148 131.63 138.135 133.133 138.161C131.566 131.561 127.1 120.433 118.672 121.028ZM182.096 133.462C177.557 134.7 175.059 138.993 173.471 143.11C174.674 143.024 175.793 142.932 176.961 142.622C179.861 141.728 183.857 140.342 185.356 137.434C186.683 134.859 184.373 133.343 182.096 133.462ZM140.917 257.479C143.523 263.633 151.515 265.737 156.693 261.286C157.653 260.289 158.42 259.272 159.1 258.066C151.344 258.763 148.392 258.199 140.917 257.479Z" fill="#253017"/>
<path d="M139.695 182.269C137.798 181.873 136.144 180.709 134.398 179.92C124.373 175.391 113.561 168.88 107.828 159.158C92.7059 133.513 104.835 102.21 129.48 87.8361C152.768 74.2535 183.397 80.2371 197.121 104.147C209.401 125.545 203.931 149.452 185.833 165.383C184.214 166.809 182.453 168.061 180.819 169.466C169.457 179.237 164.45 191.255 164.341 205.863C164.334 206.876 164.667 207.874 163.932 208.652L163.632 208.651C161.289 206.243 162.555 191.531 163.714 188.001C162.819 187.834 161.921 187.674 161.03 187.486C160.707 179.302 168.279 156.554 171.065 148.644C198.191 148.326 193.682 123.688 178.98 128.91C172.747 131.123 170.062 137.591 167.396 143.111C162.489 142.16 156.545 139.151 153.322 135.245C173.657 107.76 132.059 105.5 145.642 134.34C143.234 135.496 140.751 136.449 138.246 137.372C135.662 128.152 130.976 115.946 119.506 115.777C104.22 115.552 104.7 141.39 129.018 143.086C130.982 143.224 133.003 143.13 134.972 143.111C134.655 146.132 135.993 149.419 136.461 152.412C137.812 161.043 139.969 173.512 139.695 182.269ZM164.348 88.8076C161.918 89.9338 159.741 93.1353 161.078 95.8107C162.701 99.0568 176.762 99.8783 184.241 111.635C186.644 115.413 187.348 118.567 192.593 117.273C194.6 116.063 195.789 114.883 196.487 112.597C192.25 101.624 176.999 87.8191 164.348 88.8076ZM196.32 120.421C193.716 120.855 191.965 123.327 192.42 125.927C192.875 128.527 195.361 130.258 197.957 129.782C200.524 129.312 202.231 126.86 201.781 124.29C201.332 121.719 198.894 119.992 196.32 120.421ZM195.796 132.575C194.388 133.535 194.18 139.267 193.475 141.361C192.249 144.997 187.333 150.491 192.593 151.3C194.374 149.2 202.526 132.165 195.796 132.575ZM188.392 151.3C187.716 151.776 187.144 152.274 186.673 152.961C186.277 155.824 186.643 157.099 189.756 157.052C192.829 155.937 191.499 151.293 188.392 151.3Z" fill="#ABD27A"/>
<path d="M226.789 102.465C221.533 105.955 215.96 100.013 221.075 95.0966C224.927 91.3952 235.11 88.2938 239.48 92.887C238.01 93.6903 218.207 98.1739 226.789 102.465Z" fill="#ABD27A"/>
<path d="M60.6077 93.4505C68.3303 89.99 85.2047 99.2923 75.5045 101.969C75.8016 100.492 75.7483 99.314 74.3245 98.5236C71.5137 96.9632 63.8391 94.5087 60.6077 93.4505Z" fill="#ABD27A"/>
<path d="M239.48 92.887C242.476 93.8321 243.644 97.1385 240.241 98.6362C238.076 99.5889 228.782 103.112 226.789 102.465C218.207 98.1739 238.01 93.6903 239.48 92.887Z" fill="#253017"/>
<path d="M58.1694 97.9952C56.8757 95.6157 57.9817 93.7015 60.6077 93.4507C63.8392 94.5089 71.5138 96.9634 74.3245 98.5237C75.7484 99.3142 75.8017 100.492 75.5046 101.97C74.73 102.748 74.1587 103.068 73.0917 103.337C69.9816 102.543 60.5796 99.4794 58.1694 97.9952Z" fill="#253017"/>
<path d="M150.22 130.6C149.303 132.023 148.928 129.073 148.781 128.482C147.974 125.233 147.259 120.503 150.871 118.645C157.242 118.77 151.806 128.124 150.22 130.6Z" fill="#ABD27A"/>
<path d="M128.625 138.161C123.179 136.204 116.023 134.94 114.273 128.01C113.402 124.562 115.223 121.725 118.672 121.028C127.1 120.433 131.566 131.561 133.133 138.161C131.63 138.135 130.129 138.148 128.625 138.161Z" fill="#ABD27A"/>
<path d="M226.789 132.575C222.772 124.037 240.912 125.535 245.163 131.692C241.295 131.057 234.034 129.883 230.15 129.921C227.92 129.943 227.506 130.571 226.789 132.575Z" fill="#ABD27A"/>
<path d="M73.0915 131.692C70.8292 129.116 69.096 129.901 65.9647 130.254C62.3501 130.662 58.7571 131.281 55.1519 131.692C59.7573 127.014 74.1374 124.471 73.0915 131.692Z" fill="#ABD27A"/>
<path d="M55.152 131.692C58.7573 131.28 62.3503 130.662 65.9649 130.254C69.0962 129.901 70.8294 129.116 73.0917 131.692C72.7114 132.715 72.2556 134.195 71.164 134.675C69.5913 135.369 56.5227 137.171 55.0593 136.503C52.7323 135.44 53.0171 132.661 55.152 131.692Z" fill="#253017"/>
<path d="M245.163 131.692C248.285 132.64 247.531 135.577 245.163 136.808C241.594 136.901 237.803 136.144 234.25 135.712C231.589 135.388 227.596 135.86 226.789 132.575C227.506 130.571 227.92 129.943 230.15 129.921C234.034 129.883 241.295 131.057 245.163 131.692Z" fill="#253017"/>
<path d="M173.471 143.11C175.059 138.993 177.557 134.701 182.096 133.462C184.373 133.343 186.683 134.859 185.356 137.434C183.857 140.342 179.861 141.728 176.961 142.622C175.793 142.932 174.674 143.024 173.471 143.11Z" fill="#ABD27A"/>
<path d="M145.068 184.082C145.201 175.607 143.392 161.675 141.881 153.167C141.226 149.478 140.215 145.829 139.695 142.122C142.839 141.084 145.734 140.134 148.567 138.387C153.885 143.156 158.457 146.534 165.535 148.229C161.525 160.926 156.827 173.414 155.808 186.84C152.3 186.458 148.739 184.592 145.068 184.082Z" fill="#ABD27A"/>
<path d="M219.403 159.372C223.342 157.327 232.787 163.174 234.209 166.517C231.034 165.851 222.991 160.942 219.403 159.372Z" fill="#ABD27A"/>
<path d="M80.1211 160.123C77.6982 160.787 66.2613 166.248 64.3682 167.594C65.0771 162.892 75.6047 157.215 80.1211 160.123Z" fill="#ABD27A"/>
<path d="M232.934 172.128C229.668 171.033 226.695 169.216 223.607 167.719C221.225 166.565 215.42 165.028 217.168 161.208C217.648 160.161 218.354 159.74 219.403 159.372C222.991 160.942 231.034 165.851 234.209 166.517C236.68 168.667 236.058 171.483 232.934 172.128Z" fill="#253017"/>
<path d="M64.3681 167.594C66.2612 166.248 77.6981 160.787 80.121 160.123C90.7769 163.151 68.2581 171.502 66.3954 172.128C64.3411 170.979 63.4716 169.936 64.3681 167.594Z" fill="#253017"/>
<path d="M172.057 193.941C174.866 184.185 183.075 173.157 191.715 167.594C190.65 169.754 187.229 173.081 185.563 175.179C181.825 179.886 178.668 184.965 176.127 190.409C174.883 191.233 174.129 193.308 173.471 194.605C172.659 194.993 172.526 194.603 172.057 193.941Z" fill="#ABD27A"/>
<path d="M173.471 194.605C172.812 195.982 172.329 197.416 171.729 198.817L171.786 198.983L171.694 198.981L171.614 199.154L171.468 199.013C171.291 197.335 171.751 195.586 172.057 193.941C172.526 194.603 172.659 194.993 173.471 194.605Z" fill="#ABD27A"/>
<path d="M157.793 225.074C159.95 223.881 163.13 223.987 165.535 223.406C169.345 222.486 172.643 221.082 176.127 219.302C183.037 228.336 157.63 230.83 153.615 230.669C154.488 229.717 156.59 229.251 157.793 228.761C156.799 228.713 155.831 228.714 154.838 228.761C154.205 228.663 154.156 228.279 153.984 227.728C155.173 226.992 156.189 225.961 157.51 225.441L157.411 225.561L157.591 225.155L157.773 225.161L157.837 225.076L157.836 225.166L157.779 225.186L157.793 225.074Z" fill="#ABD27A"/>
<path d="M150.871 229.735C151.839 228.811 152.768 228.264 153.984 227.728C154.156 228.279 154.205 228.663 154.838 228.761C153.986 229.142 153.714 229.373 153.322 230.223L150.871 229.735Z" fill="#ABD27A"/>
<path d="M154.838 228.761C155.831 228.714 156.799 228.713 157.793 228.761C156.59 229.252 154.488 229.717 153.615 230.669L153.322 230.223C153.714 229.373 153.986 229.142 154.838 228.761Z" fill="#DEEBC5"/>
<path d="M157.793 235.417C164.481 235.306 170.88 233.639 176.961 230.924C179.453 240.973 158.573 241.28 152.155 241.843C152.535 239.94 154.756 240.114 156.197 239.462C157.101 239.157 157.976 238.774 158.759 238.226C157.342 238.482 156 239.064 154.615 239.462C153.56 239.318 152.588 239.363 151.535 239.462C153.873 237.601 156.542 237.089 158.524 235.597L158.462 235.495L157.793 235.417Z" fill="#ABD27A"/>
<path d="M154.615 239.462C155.999 239.064 157.342 238.482 158.759 238.226C157.976 238.774 157.101 239.157 156.197 239.462C155.736 239.277 155.107 239.414 154.615 239.462Z" fill="#DEEBC5"/>
<path d="M157.793 246.639C163.981 246.167 169.356 244.81 175.179 242.759C173.278 250.788 159.995 252.81 153.322 252.663C151.537 252.837 149.57 253.054 147.803 252.663L152.685 251.642H153.322C154.778 250.934 156.251 250.441 157.793 249.959H155.808C154.765 249.973 154.428 249.42 154.615 248.439C155.673 247.838 156.755 247.275 157.793 246.639Z" fill="#ABD27A"/>
<path d="M150.871 251.078C151.075 249.826 153.601 248.951 154.615 248.439C154.429 249.42 154.765 249.973 155.808 249.959C154.19 250.352 152.453 250.612 150.871 251.078Z" fill="#ABD27A"/>
<path d="M155.808 249.958H157.793C156.251 250.441 154.778 250.933 153.322 251.641H152.685C152.128 251.265 151.518 251.197 150.871 251.078C152.453 250.612 154.19 250.352 155.808 249.958Z" fill="#DEEBC5"/>
</svg>
