<svg xmlns="http://www.w3.org/2000/svg" width="24" height="24" fill="none"><path fill="#253017" stroke="#000" d="M9.209 2.5h5.582c2.468 0 4.11.53 5.145 1.564C20.97 5.1 21.5 6.741 21.5 9.21v5.582c0 2.468-.53 4.11-1.564 5.145C18.9 20.97 17.259 21.5 14.79 21.5H9.209c-2.468 0-4.11-.53-5.145-1.564C3.03 18.9 2.5 17.259 2.5 14.79V9.209c0-2.468.53-4.11 1.564-5.145C5.1 3.03 6.741 2.5 9.21 2.5Zm0 .396c-2.18 0-3.805.382-4.868 1.445C3.278 5.404 2.896 7.03 2.896 9.209v5.582c0 2.18.382 3.805 1.445 4.868 1.063 1.063 2.689 1.446 4.868 1.446h5.582c2.18 0 3.805-.383 4.868-1.446 1.063-1.063 1.446-2.689 1.446-4.868V9.209c0-2.18-.383-3.805-1.446-4.868-1.063-1.063-2.689-1.445-4.868-1.445H9.209Z"/></svg>