<svg xmlns="http://www.w3.org/2000/svg" width="24" height="24" fill="none"><path fill="#253017" d="M6.086 18.97c-.572 0-1.107-.197-1.491-.562-.488-.46-.723-1.154-.638-1.904l.347-3.04c.066-.571.413-1.33.816-1.744l7.7-8.15c1.923-2.035 3.93-2.092 5.965-.169 2.036 1.923 2.092 3.93.17 5.965l-7.701 8.15c-.394.423-1.126.817-1.698.91l-3.02.516c-.16.01-.3.029-.45.029ZM15.83 3.393c-.722 0-1.35.45-1.989 1.125l-7.7 8.16c-.187.197-.403.666-.44.938l-.348 3.039c-.037.31.038.563.207.722.169.16.422.216.731.169l3.02-.516c.272-.047.723-.29.91-.488l7.7-8.15c1.163-1.238 1.586-2.383-.112-3.977-.75-.722-1.398-1.022-1.98-1.022Z"/><path fill="#253017" d="M17.153 10.932h-.066a6.433 6.433 0 0 1-5.73-5.42.715.715 0 0 1 .59-.807.715.715 0 0 1 .807.59 5.039 5.039 0 0 0 4.484 4.24.704.704 0 0 1 .628.77.726.726 0 0 1-.713.627ZM20.586 22H3.703A.709.709 0 0 1 3 21.297c0-.385.319-.704.703-.704h16.883c.385 0 .703.319.703.704a.709.709 0 0 1-.703.703Z"/></svg>