<svg xmlns="http://www.w3.org/2000/svg" width="24" height="24" fill="none"><path fill="#253017" d="M9.645 15.05a.69.69 0 0 1-.493-.204 4.006 4.006 0 0 1-1.182-2.847A4.03 4.03 0 0 1 12 7.97c1.07 0 2.084.42 2.846 1.182a.697.697 0 0 1 0 .986l-4.707 4.708a.69.69 0 0 1-.493.204Zm2.354-5.684a2.636 2.636 0 0 0-2.29 3.935l3.592-3.59A2.62 2.62 0 0 0 12 9.365Z"/><path fill="#253017" d="M6.045 18.055a.708.708 0 0 1-.456-.167c-.996-.847-1.889-1.889-2.652-3.098-.986-1.535-.986-4.038 0-5.582 2.27-3.554 5.573-5.6 9.062-5.6 2.047 0 4.065.706 5.833 2.037a.698.698 0 0 1-.837 1.116c-1.526-1.154-3.256-1.758-4.996-1.758-3.005 0-5.88 1.805-7.89 4.958-.697 1.089-.697 2.987 0 4.075.698 1.089 1.498 2.028 2.382 2.791a.704.704 0 0 1 .075.986.676.676 0 0 1-.521.242ZM12 20.39a9.186 9.186 0 0 1-3.61-.744.698.698 0 0 1-.373-.912.698.698 0 0 1 .912-.372 7.809 7.809 0 0 0 3.06.633c3.006 0 5.88-1.805 7.89-4.959.698-1.088.698-2.986 0-4.075a13.255 13.255 0 0 0-.94-1.302.707.707 0 0 1 .103-.986.698.698 0 0 1 .986.102c.363.447.716.93 1.033 1.433.986 1.535.986 4.037 0 5.582-2.27 3.554-5.573 5.6-9.062 5.6Z"/><path fill="#253017" d="M12.641 15.971a.705.705 0 0 1-.688-.567.685.685 0 0 1 .558-.81 2.624 2.624 0 0 0 2.065-2.065.706.706 0 0 1 .819-.558.699.699 0 0 1 .558.819 3.998 3.998 0 0 1-3.182 3.181c-.046-.009-.084 0-.13 0ZM2.695 22a.69.69 0 0 1-.493-.205.702.702 0 0 1 0-.986l6.95-6.95c.27-.27.716-.27.986 0s.27.717 0 .987l-6.95 6.95a.69.69 0 0 1-.493.204ZM14.353 10.343a.69.69 0 0 1-.493-.205.702.702 0 0 1 0-.986l6.95-6.95c.269-.27.716-.27.985 0 .27.27.27.717 0 .987l-6.95 6.95a.69.69 0 0 1-.492.204Z"/></svg>