<svg xmlns="http://www.w3.org/2000/svg" width="24" height="24" fill="none"><path fill="#253017" d="M9.207 10.84A2.556 2.556 0 0 1 6.65 8.282a2.556 2.556 0 0 1 2.557-2.557 2.556 2.556 0 0 1 2.558 2.557 2.556 2.556 0 0 1-2.558 2.558Zm0-3.72a1.163 1.163 0 1 0 .001 2.326 1.163 1.163 0 0 0 0-2.326Z"/><path fill="#253017" d="M14.787 22h-5.58C4.158 22 2 19.842 2 14.793v-5.58c0-5.05 2.158-7.208 7.208-7.208h3.72c.38 0 .697.316.697.697a.703.703 0 0 1-.697.698h-3.72c-4.288 0-5.813 1.525-5.813 5.812v5.58c0 4.288 1.525 5.813 5.813 5.813h5.58c4.287 0 5.812-1.525 5.812-5.813v-4.65c0-.38.316-.697.698-.697.38 0 .697.316.697.697v4.65c0 5.05-2.158 7.208-7.208 7.208Z"/><path fill="#253017" d="M15.41 9.91c-.362 0-.697-.13-.939-.381a1.347 1.347 0 0 1-.363-1.154l.186-1.292c.047-.326.242-.726.484-.958l3.376-3.376c1.349-1.349 2.52-.577 3.097 0 .549.549.8 1.125.744 1.72-.047.475-.288.93-.744 1.377l-3.376 3.376a1.96 1.96 0 0 1-.958.483l-1.293.186c-.074.019-.148.019-.213.019Zm3.72-6.166L15.756 7.12a.518.518 0 0 0-.084.177l-.177 1.209 1.218-.168a.542.542 0 0 0 .177-.093l3.376-3.376c.205-.204.326-.39.335-.53.019-.195-.177-.437-.335-.595-.483-.484-.707-.428-1.134 0Z"/><path fill="#253017" d="M20.274 6.543a.6.6 0 0 1-.186-.028 3.792 3.792 0 0 1-2.594-2.594.692.692 0 0 1 .483-.856.692.692 0 0 1 .856.484 2.394 2.394 0 0 0 1.637 1.637.697.697 0 0 1 .483.855.735.735 0 0 1-.678.502ZM3.32 19.163a.699.699 0 0 1-.39-1.274l4.585-3.078c1.004-.67 2.39-.595 3.301.177l.307.27c.465.4 1.256.4 1.712 0l3.868-3.32c.986-.847 2.54-.847 3.534 0l1.516 1.301a.703.703 0 0 1 .075.986.703.703 0 0 1-.986.075l-1.516-1.302c-.465-.4-1.256-.4-1.711 0l-3.87 3.32c-.985.846-2.538.846-3.533 0l-.307-.27c-.428-.363-1.135-.4-1.609-.074l-4.575 3.078a.814.814 0 0 1-.4.111Z"/></svg>