<svg xmlns="http://www.w3.org/2000/svg" width="24" height="24" fill="none"><path fill="#253017" d="M12 22C6.484 22 2 17.516 2 12S6.484 2 12 2s10 4.484 10 10-4.484 10-10 10Zm0-18.605c-4.744 0-8.605 3.86-8.605 8.605 0 4.744 3.86 8.605 8.605 8.605 4.744 0 8.605-3.86 8.605-8.605 0-4.744-3.86-8.605-8.605-8.605Z"/><path fill="#253017" d="M9.21 21.07h-.93a.703.703 0 0 1-.698-.698c0-.381.297-.688.679-.698a27.432 27.432 0 0 1 0-15.348.693.693 0 0 1-.68-.698c0-.381.317-.698.698-.698h.93c.224 0 .438.112.568.289.13.186.168.418.093.632a25.998 25.998 0 0 0 0 16.307.698.698 0 0 1-.093.633.733.733 0 0 1-.567.279ZM14.79 21.07a.693.693 0 0 1-.66-.921 25.997 25.997 0 0 0 0-16.307.697.697 0 1 1 1.32-.447 27.271 27.271 0 0 1 .001 17.182.692.692 0 0 1-.66.493Z"/><path fill="#253017" d="M12 16.837a27.14 27.14 0 0 1-7.674-1.098.7.7 0 0 1-.698.68.703.703 0 0 1-.698-.698v-.93c0-.224.112-.438.289-.568a.699.699 0 0 1 .632-.093 25.997 25.997 0 0 0 16.307 0 .699.699 0 0 1 .633.093c.186.13.288.344.288.568v.93a.703.703 0 0 1-.698.698.693.693 0 0 1-.697-.68A27.252 27.252 0 0 1 12 16.837ZM20.372 9.907a.625.625 0 0 1-.223-.037 25.998 25.998 0 0 0-16.307 0 .697.697 0 0 1-.884-.437.71.71 0 0 1 .447-.884 27.272 27.272 0 0 1 17.181 0c.363.12.567.52.437.884a.678.678 0 0 1-.65.474Z"/></svg>