<svg width="25" height="24" viewBox="0 0 25 24" fill="none" xmlns="http://www.w3.org/2000/svg">
<path d="M24.5002 12.2658C24.5002 11.2792 24.4185 10.5592 24.2417 9.8125H12.7451V14.2658H19.4934C19.3574 15.3725 18.6227 17.0392 16.99 18.1591L16.9671 18.3082L20.6021 21.0679L20.854 21.0925C23.1668 18.9991 24.5002 15.9191 24.5002 12.2658Z" fill="#4285F4"/>
<path d="M12.745 23.9997C16.051 23.9997 18.8265 22.933 20.8538 21.093L16.9898 18.1596C15.9558 18.8663 14.568 19.3596 12.745 19.3596C9.50688 19.3596 6.75861 17.2664 5.77892 14.373L5.63532 14.385L1.85558 17.2517L1.80615 17.3863C3.81974 21.3063 7.9558 23.9997 12.745 23.9997Z" fill="#34A853"/>
<path d="M5.77886 14.3731C5.52036 13.6265 5.37076 12.8264 5.37076 11.9998C5.37076 11.1731 5.52036 10.3731 5.76526 9.62643L5.75841 9.46741L1.93131 6.55469L1.80609 6.61306C0.976196 8.23974 0.5 10.0664 0.5 11.9998C0.5 13.9331 0.976196 15.7597 1.80609 17.3864L5.77886 14.3731Z" fill="#FBBC05"/>
<path d="M12.745 4.63997C15.0442 4.63997 16.5952 5.6133 17.4796 6.42669L20.9354 3.12C18.813 1.18667 16.051 0 12.745 0C7.9558 0 3.81974 2.69331 1.80615 6.61328L5.76532 9.62665C6.75861 6.73333 9.50688 4.63997 12.745 4.63997Z" fill="#EB4335"/>
</svg>
