<svg xmlns="http://www.w3.org/2000/svg" width="24" height="24" fill="none"><path fill="#253017" d="M17.386 22H6.614C4.065 22 2 19.923 2 17.372v-6.9c0-1.267.781-2.86 1.786-3.642L8.8 2.919c1.507-1.174 3.916-1.23 5.48-.13l5.748 4.032C21.135 7.594 22 9.25 22 10.6v6.78A4.622 4.622 0 0 1 17.386 22ZM9.656 4.018l-5.014 3.91c-.66.522-1.247 1.705-1.247 2.543v6.9a3.23 3.23 0 0 0 3.219 3.232h10.772a3.221 3.221 0 0 0 3.219-3.222v-6.78c0-.893-.642-2.132-1.377-2.635l-5.749-4.032c-1.06-.745-2.81-.708-3.823.084Z"/><path fill="#253017" d="M12 18.75c-.41 0-.75-.34-.75-.75v-3c0-.41.34-.75.75-.75s.75.34.75.75v3c0 .41-.34.75-.75.75Z"/></svg>