<svg width="72" height="72" viewBox="0 0 72 72" fill="none" xmlns="http://www.w3.org/2000/svg">
<path d="M53.946 56.1741C51.8494 53.3991 49.1373 51.1486 46.0232 49.5999C42.9091 48.0511 39.478 47.2464 36 47.2491C32.522 47.2464 29.0909 48.0511 25.9767 49.5999C22.8626 51.1486 20.1505 53.3991 18.054 56.1741M53.946 56.1741C58.0365 52.5357 60.9243 47.7398 62.2265 42.4224C63.5287 37.105 63.1838 31.5174 61.2374 26.4005C59.291 21.2837 55.8351 16.8794 51.3282 13.7718C46.8212 10.6642 41.476 9 36.0015 9C30.527 9 25.1818 10.6642 20.6748 13.7718C16.1678 16.8794 12.712 21.2837 10.7656 26.4005C8.81919 31.5174 8.47422 37.105 9.77643 42.4224C11.0786 47.7398 13.9635 52.5357 18.054 56.1741M53.946 56.1741C49.0074 60.5777 42.6166 63.0074 36 62.9991C29.3823 63.0081 22.9933 60.5784 18.054 56.1741M45 29.2491C45 31.6361 44.0518 33.9253 42.3639 35.6131C40.6761 37.3009 38.3869 38.2491 36 38.2491C33.613 38.2491 31.3238 37.3009 29.636 35.6131C27.9482 33.9253 27 31.6361 27 29.2491C27 26.8622 27.9482 24.573 29.636 22.8852C31.3238 21.1973 33.613 20.2491 36 20.2491C38.3869 20.2491 40.6761 21.1973 42.3639 22.8852C44.0518 24.573 45 26.8622 45 29.2491Z" stroke="#253017" stroke-width="1.5" stroke-linecap="round" stroke-linejoin="round"/>
<rect x="48" y="48" width="16" height="16" rx="8" fill="#ABD27A"/>
<path d="M60 56.5H52C51.7267 56.5 51.5 56.2733 51.5 56C51.5 55.7267 51.7267 55.5 52 55.5H60C60.2733 55.5 60.5 55.7267 60.5 56C60.5 56.2733 60.2733 56.5 60 56.5Z" fill="white"/>
<path d="M56 60.5C55.7267 60.5 55.5 60.2733 55.5 60V52C55.5 51.7267 55.7267 51.5 56 51.5C56.2733 51.5 56.5 51.7267 56.5 52V60C56.5 60.2733 56.2733 60.5 56 60.5Z" fill="white"/>
</svg>
