<svg xmlns="http://www.w3.org/2000/svg" width="24" height="24" fill="none"><path fill="#253017" d="M12 20.953c-.288 0-.567-.037-.8-.12C7.647 19.614 2 15.288 2 8.898 2 5.642 4.633 3 7.87 3A5.78 5.78 0 0 1 12 4.712 5.78 5.78 0 0 1 16.13 3C19.367 3 22 5.651 22 8.898c0 6.4-5.646 10.716-9.2 11.935-.233.083-.512.12-.8.12ZM7.87 4.395c-2.465 0-4.475 2.019-4.475 4.503 0 6.353 6.112 9.888 8.26 10.623.168.056.531.056.699 0 2.139-.735 8.26-4.26 8.26-10.623 0-2.484-2.01-4.503-4.474-4.503A4.42 4.42 0 0 0 12.567 6.2c-.26.353-.855.353-1.116 0A4.437 4.437 0 0 0 7.87 4.395Z"/></svg>