<svg xmlns="http://www.w3.org/2000/svg" width="24" height="24" fill="none"><path fill="#253017" d="M12.425 22c-.158 0-.316 0-.474-.01-5.209-.232-9.562-4.427-9.925-9.543C1.71 8.057 4.25 3.955 8.342 2.234c1.163-.483 1.777-.111 2.037.159.26.26.623.865.14 1.971a7.623 7.623 0 0 0-.633 3.116c.019 4.121 3.442 7.618 7.618 7.786.605.028 1.2-.019 1.777-.121 1.227-.223 1.739.27 1.934.586.196.316.419.995-.325 2C18.918 20.428 15.783 22 12.425 22Zm-9.013-9.655c.317 4.428 4.093 8.055 8.595 8.25a9.052 9.052 0 0 0 7.748-3.683 1.86 1.86 0 0 0 .233-.41 1.464 1.464 0 0 0-.465.029 9.737 9.737 0 0 1-2.084.14c-4.911-.196-8.93-4.317-8.957-9.172 0-1.284.25-2.52.762-3.683.093-.205.112-.344.121-.419-.083 0-.232.019-.474.121-3.544 1.488-5.739 5.041-5.479 8.827Z"/></svg>