<svg xmlns="http://www.w3.org/2000/svg" width="24" height="24" fill="none"><path fill="#253017" d="M14.79 22H9.21C4.157 22 2 19.842 2 14.79V9.21C2 4.157 4.158 2 9.21 2h5.58C19.843 2 22 4.158 22 9.21v5.58c0 5.052-2.158 7.21-7.21 7.21ZM9.21 3.395c-4.29 0-5.815 1.526-5.815 5.814v5.582c0 4.288 1.526 5.814 5.814 5.814h5.582c4.288 0 5.814-1.526 5.814-5.814V9.209c0-4.288-1.526-5.814-5.814-5.814H9.209Z"/><path fill="#253017" d="M12 12.93a.927.927 0 0 1-.93-.93c0-.512.418-.93.93-.93s.93.418.93.93-.409.93-.93.93ZM15.72 12.93a.927.927 0 0 1-.93-.93c0-.512.42-.93.93-.93.512 0 .931.418.931.93s-.41.93-.93.93ZM8.279 12.93a.927.927 0 0 1-.93-.93c0-.512.418-.93.93-.93.511 0 .93.418.93.93s-.41.93-.93.93Z"/></svg>