<svg xmlns="http://www.w3.org/2000/svg" width="24" height="24" fill="none"><path stroke="#253017" stroke-linecap="round" stroke-linejoin="round" stroke-width="1.5" d="M3.527 14.493c-.192 1.255.664 2.125 1.712 2.559 4.016 1.665 9.605 1.665 13.622 0 1.048-.434 1.904-1.305 1.712-2.559-.117-.771-.7-1.413-1.13-2.04-.565-.832-.62-1.738-.621-2.703 0-3.728-3.03-6.75-6.772-6.75-3.741 0-6.773 3.022-6.773 6.75 0 .965-.055 1.872-.62 2.703-.43.627-1.012 1.269-1.13 2.04Z"/><path stroke="#253017" stroke-linecap="round" stroke-linejoin="round" stroke-width="1.5" d="M8.45 18.3c.412 1.552 1.869 2.7 3.6 2.7 1.733 0 3.187-1.148 3.6-2.7"/></svg>