<svg xmlns="http://www.w3.org/2000/svg" width="24" height="24" fill="none"><path fill="#253017" d="M15.404 8.784a1.25 1.25 0 1 1 0-2.5 1.25 1.25 0 0 1 0 2.5ZM10.906 7.971a1.25 1.25 0 1 1 0-2.5 1.25 1.25 0 0 1 0 2.5ZM7.404 10.69a1.25 1.25 0 1 1 0-2.5 1.25 1.25 0 0 1 0 2.5ZM6.435 14.906a1.25 1.25 0 1 1 0-2.5 1.25 1.25 0 0 1 0 2.5ZM8.654 18.698a1.25 1.25 0 1 1 0-2.5 1.25 1.25 0 0 1 0 2.5Z"/><path stroke="#253017" stroke-linejoin="round" stroke-width="1.5" d="M21.25 12.25A9.25 9.25 0 1 0 12 21.5c1.318 0 2.224-1.28 2.329-2.594l.117-1.473a3 3 0 0 1 2.758-2.752l1.651-.129c1.28-.1 2.395-1.019 2.395-2.302Z"/></svg>