<svg xmlns="http://www.w3.org/2000/svg" width="24" height="24" fill="none"><path fill="#253017" d="M2 14.79V9.21C2 4.157 4.158 2 9.21 2h5.58C19.843 2 22 4.158 22 9.21v5.58c0 5.052-2.158 7.21-7.21 7.21H9.21C4.157 22 2 19.842 2 14.79Zm18.605-5.58c0-4.29-1.526-5.815-5.814-5.815H9.209c-4.288 0-5.814 1.526-5.814 5.814v5.582c0 4.288 1.526 5.814 5.814 5.814h5.582c4.288 0 5.814-1.526 5.814-5.814V9.209Z"/><path fill="#253017" d="M8.484 9.767a.69.69 0 0 1 .205-.493l2.316-2.316a1.398 1.398 0 0 1 1.981 0l2.317 2.316c.27.27.27.717 0 .987a.702.702 0 0 1-.987 0L12 7.944l-2.325 2.317a.702.702 0 0 1-.986 0 .731.731 0 0 1-.205-.494ZM8.483 14.232a.69.69 0 0 1 .205-.492c.27-.27.716-.27.986 0L12 16.055l2.325-2.317c.27-.27.717-.27.986 0 .27.27.27.717 0 .987l-2.316 2.316a1.398 1.398 0 0 1-1.981 0l-2.317-2.316a.685.685 0 0 1-.214-.494Z"/></svg>