<svg xmlns="http://www.w3.org/2000/svg" width="24" height="24" fill="none"><path fill="#253017" d="M10.564 7.822a.685.685 0 0 1-.49-.203L7.127 4.672 4.18 7.62a.697.697 0 0 1-.98 0 .697.697 0 0 1 0-.98l3.437-3.436a.692.692 0 0 1 .98 0l3.436 3.437a.697.697 0 0 1 0 .979.685.685 0 0 1-.49.203Z"/><path fill="#253017" d="M7.126 21.014a.698.698 0 0 1-.692-.693V3.693c0-.379.314-.693.692-.693.38 0 .693.314.693.693V20.32a.698.698 0 0 1-.693.693ZM16.873 21.014a.692.692 0 0 1-.49-.203l-3.436-3.437a.697.697 0 0 1 0-.979.697.697 0 0 1 .98 0l2.946 2.947 2.947-2.947a.697.697 0 0 1 .98 0 .697.697 0 0 1 0 .98l-3.437 3.436a.708.708 0 0 1-.49.203Z"/><path fill="#253017" d="M16.864 21.014a.698.698 0 0 1-.693-.693V3.693c0-.379.314-.693.693-.693.378 0 .693.314.693.693V20.32a.692.692 0 0 1-.693.693Z"/></svg>