<svg xmlns="http://www.w3.org/2000/svg" width="24" height="24" fill="none"><path fill="#253017" d="M12.018 18.621a6.608 6.608 0 0 1-6.602-6.603 6.608 6.608 0 0 1 6.602-6.603 6.608 6.608 0 0 1 6.603 6.603 6.608 6.608 0 0 1-6.603 6.603Zm0-11.84a5.243 5.243 0 0 0-5.236 5.237 5.243 5.243 0 0 0 5.236 5.237 5.243 5.243 0 0 0 5.237-5.237 5.243 5.243 0 0 0-5.237-5.237ZM12.018 22c-.5 0-.91-.373-.91-.874v-.073c0-.501.41-.91.91-.91.501 0 .911.409.911.91 0 .5-.41.947-.91.947Zm6.503-2.568a.933.933 0 0 1-.647-.264l-.118-.119a.907.907 0 1 1 1.284-1.284l.119.118a.907.907 0 0 1-.638 1.549Zm-13.006 0a.933.933 0 0 1-.646-.264.907.907 0 0 1 0-1.285l.118-.118a.907.907 0 1 1 1.284 1.284l-.118.119a.912.912 0 0 1-.638.264Zm15.61-6.503h-.072c-.501 0-.91-.41-.91-.91 0-.502.409-.912.91-.912.5 0 .947.41.947.911 0 .501-.373.911-.874.911Zm-18.141 0H2.91c-.501 0-.911-.41-.911-.91 0-.502.41-.912.91-.912.502 0 .948.41.948.911 0 .501-.373.911-.874.911Zm15.419-6.384a.933.933 0 0 1-.647-.264.907.907 0 0 1 0-1.285l.118-.118a.907.907 0 1 1 1.285 1.284l-.119.119a.896.896 0 0 1-.637.264Zm-12.77 0a.933.933 0 0 1-.646-.264l-.118-.128a.907.907 0 1 1 1.284-1.284l.118.118a.907.907 0 0 1 0 1.284.884.884 0 0 1-.637.274Zm6.385-2.687c-.5 0-.91-.373-.91-.874V2.91c0-.501.41-.911.91-.911.501 0 .911.41.911.91 0 .502-.41.948-.91.948Z"/></svg>