<svg xmlns="http://www.w3.org/2000/svg" width="24" height="24" fill="none"><path fill="#253017" d="M11.988 12.698a5.356 5.356 0 0 1-5.349-5.35C6.64 4.4 9.04 2 11.988 2c2.949 0 5.349 2.4 5.349 5.349 0 2.949-2.4 5.349-5.349 5.349Zm0-9.303A3.962 3.962 0 0 0 8.035 7.35a3.962 3.962 0 0 0 3.953 3.953 3.962 3.962 0 0 0 3.954-3.953 3.962 3.962 0 0 0-3.954-3.954ZM19.979 22a.703.703 0 0 1-.698-.698c0-3.209-3.274-5.814-7.293-5.814-4.018 0-7.293 2.605-7.293 5.814a.703.703 0 0 1-.698.698.703.703 0 0 1-.697-.698c0-3.972 3.897-7.209 8.688-7.209 4.79 0 8.689 3.237 8.689 7.21a.703.703 0 0 1-.698.697Z"/></svg>