<svg width="501" height="332" viewBox="0 0 501 332" fill="none" xmlns="http://www.w3.org/2000/svg">
<path d="M96.1055 263.12C65.107 260.905 66.3917 234.902 64.7723 210.203C61.2273 156.135 63.2285 107.901 65.4997 54.3043C66.0826 40.5477 69.2925 28.7696 84.5173 23.8794C89.9697 22.1286 95.7711 22.2331 101.437 21.9479L118.602 21.2253L278.365 17.8331C294.79 17.7345 396.859 17.3146 409.124 23.7202C415.239 26.9133 419.227 32.6022 421.282 39.0655C423.297 53.0964 424.225 67.4524 425.354 81.5839C429.14 128.999 430.519 176.738 427 224.21C425.85 239.724 422.314 253.651 403.45 256.105C391.927 257.603 376.648 258.048 364.912 258.576C359.65 258.812 354.124 258.712 348.912 259.458C327.793 259.867 306.713 261.928 285.579 261.928V264.824L285.598 265.09C287.092 283.318 323.213 310.84 283.374 312.756C263.642 313.707 242.705 314.613 222.97 314.705C188.446 314.865 198.367 303.695 205.075 280.653C206.469 275.863 207.318 271.162 208.256 266.28C208.407 265.523 208.561 265.17 208.307 264.429C207.154 263.773 187.693 264.118 184.7 264.089L107.329 263.158C103.603 263.1 99.8266 262.921 96.1055 263.12ZM416.777 221.426C417.009 219 417.589 216.729 417.926 214.337C388.952 219.551 348.102 219.986 318.539 221.059L227.383 224.195C216.796 224.471 206.283 224.597 195.685 224.597L152.112 224.594C136.28 224.591 120.463 224.586 104.633 224.239L87.2422 223.849C83.5596 223.769 79.8002 223.518 76.133 223.9C77.1171 234.569 77.1148 245.107 87.4012 251.036C93.4824 254.444 106.721 253.019 113.612 253.073L148.904 253.477C226.294 254.466 303.439 252.21 380.679 247.262L395.087 246.333C414.445 245.095 415.387 240.06 416.777 221.426ZM274.804 264.824V263.12C263.387 262.096 246.788 263.414 235.133 263.744L225.095 263.967C221.499 264.033 219.142 262.787 218.716 266.28C216.95 275.52 214.774 284.824 211.52 293.659C210.772 295.691 208.047 301.645 208.53 303.509C212.09 307.202 268.949 303.205 276.472 303.134C300.252 302.912 292.82 302.036 284.627 288.876C280.02 281.474 276.672 273.337 274.804 264.824ZM280.975 28.4434C271.39 28.4375 261.743 28.2344 252.162 28.461L141.695 31.1951C129.508 31.6199 117.305 31.9011 105.127 32.485C73.8278 33.9859 77.2485 38.6846 75.6571 64.3189L73.6808 99.2736C72.4931 124.781 72.5269 150.476 73.2577 175.998C73.6099 188.295 74.8886 200.572 75.2339 212.861C84.5981 214.265 95.0622 213.435 104.573 213.741C111.812 213.975 118.955 214.183 126.194 214.212L210.045 214.337C213.999 214.36 217.922 214.035 221.871 213.936L252.154 213.091C300.287 211.755 348.522 210.234 396.537 206.426C402.397 205.961 411.866 205.485 417.33 204.182L417.495 204.012L417.338 203.825L417.556 203.731L417.591 203.505L417.311 203.44L417.288 203.083L417.657 202.929C420.406 152.705 417.32 102.191 412.47 52.1951C410.746 34.4214 409.186 32.404 389.847 30.8416C354.449 27.9825 316.702 27.9327 280.975 28.4434Z" fill="#253017"/>
<path d="M421.282 39.0645C424.758 40.4266 427.715 43.3658 429.196 46.7893C431.228 51.4861 433.203 84.5387 433.84 94.1384L435.417 121.504C436.097 133.97 436.272 146.444 436.531 158.92C436.929 178.117 438.479 236.346 433.163 249.607C426.859 265.331 414.219 264.844 400.572 264.835L379.363 264.822C362.069 264.813 344.71 265.169 327.424 264.823H285.58V261.927C306.713 261.927 327.793 259.866 348.912 259.457C354.125 258.711 359.65 258.811 364.912 258.575C376.648 258.047 391.927 257.602 403.45 256.104C422.314 253.65 425.85 239.723 427 224.209C430.519 176.737 429.14 128.998 425.354 81.5829C424.225 67.4514 423.297 53.0954 421.282 39.0645Z" fill="#508826"/>
<path d="M401.028 57.2054C401.021 54.7137 401.079 51.9911 400.235 49.6158C396.176 38.187 379.29 45.3396 375.307 43.2359C374.269 42.6877 373.864 41.6307 374.619 40.6552C375.801 39.1263 382.063 39.4341 384.037 39.1988C393.74 38.4935 402.517 40.1534 404.609 51.1606C404.902 52.7021 405.854 61.2959 405.321 62.2307C403.021 66.2653 401.159 59.346 401.028 57.2054Z" fill="#253017"/>
<path d="M250.218 153.728C230.669 156.953 221.561 142.375 219.93 124.861C218.091 105.109 220.668 63.4745 247.129 61.0239C252.59 59.627 259.92 62.5168 264.281 65.7295C287.567 82.89 281.298 149.381 250.218 153.728ZM247.129 70.5264C228.564 74.945 227.591 118.233 231.002 131.904C233.478 141.826 240.531 145.153 250.218 143.726C274.235 134.912 276.152 67.752 247.129 70.5264Z" fill="#253017"/>
<path d="M311.716 153.729L311.057 153.74C287.936 153.94 283.079 135.728 283.234 115.662C283.382 96.3475 288.631 60.7107 314.29 61.0244C352.586 60.4552 352.064 149.438 311.716 153.729ZM312.842 71.1506C295.473 72.0281 292.515 109.651 293.241 121.793C294.061 135.522 297.718 144.842 312.842 143.727C333.024 137.756 335.081 102.288 330.265 86.1697C328.435 80.0451 320.303 67.7229 312.842 71.1506Z" fill="#253017"/>
<path d="M153.79 137.45C156.448 138.111 158.246 139.805 160.507 141.239C175.913 151.012 205.6 141.283 200.463 119.955C197.513 107.71 181.777 104.838 171.272 107.761C167.163 108.905 158.907 113.545 157.885 105.93C157.145 100.414 159.047 67.6387 162.514 64.0163C165.03 61.3895 193.3 61.3314 198.12 61.0232C201.063 60.9752 207.337 60.1328 209.651 62.004C211.699 63.6602 211.759 67.157 210.077 69.0836C207.633 71.8838 175.592 71.9456 170.115 72.4596C168.486 80.8013 167.495 89.7474 167.575 98.2442C182.457 94.3949 203.021 98.0098 208.927 114.282C219.822 144.31 184.25 163.864 156.637 150.604C151.321 147.525 143.247 139.866 153.79 137.45Z" fill="#253017"/>
<path d="M100.95 206.161C95.8934 206.832 89.2002 207.975 84.5682 205.466C78.9736 202.436 80.128 194.873 80.0725 189.619C80.049 187.397 78.8004 184.186 81.8137 183.576C85.5999 183.844 82.6788 195.628 84.4044 199.848C87.1517 206.569 98.1717 201.31 101.424 202.738C103.535 203.666 102.924 205.722 100.95 206.161Z" fill="#253017"/>
<path d="M87.4013 251.035C86.4196 246.185 81.4326 234.908 86.0002 230.779C87.3417 229.566 125.936 230.476 130.612 230.477L237.128 230.479C255.194 230.476 271.603 230.027 289.583 229.307L363.559 226.282C377.093 225.521 390.577 224.062 404.036 222.493C408.303 221.995 412.463 221.221 416.777 221.425C415.387 240.059 414.445 245.094 395.087 246.332L380.679 247.261C303.439 252.21 226.294 254.465 148.904 253.476L113.612 253.072C106.721 253.018 93.4826 254.443 87.4013 251.035Z" fill="#ABD27A"/>
<path d="M274.804 264.824C261.947 266.791 231.574 266.793 218.716 266.281C219.142 262.787 221.5 264.033 225.095 263.967L235.133 263.744C246.789 263.415 263.387 262.096 274.804 263.12V264.824Z" fill="#ABD27A"/>
<path d="M96.1055 263.118C99.8266 262.92 103.603 263.099 107.329 263.156L184.7 264.088C187.693 264.117 207.154 263.772 208.307 264.428C208.561 265.169 208.407 265.521 208.256 266.279C183.85 267.069 159.212 267.179 134.794 266.848C124.197 266.705 105.495 268.864 96.1055 263.118Z" fill="#ABD27A"/>
<path d="M240.994 184.394C240.935 186.172 241.773 189.847 240.705 191.22C240.023 192.098 238.829 192.181 238 191.446C236.668 190.265 237.022 179.166 237.021 177.226C237.02 173.3 235.912 170.379 240.994 170.133C244.55 168.572 251.339 172.054 250.33 177.269C249.767 180.182 247.383 181.638 245.098 183.172C246.813 184.383 251.034 187.722 251.627 189.792C250.862 192.653 248.937 191.489 247.276 190.189C245.29 188.176 243.179 186.19 240.994 184.394ZM241.941 174.145H240.994C240.979 177.839 239.583 182.143 244.478 179.112C248.725 176.511 246.598 173.147 241.941 174.145Z" fill="#253017"/>
<path d="M209.69 189.314C211.929 189.374 215.118 188.954 216.997 189.118C218.219 189.224 218.788 191.146 217.999 191.999C216.505 193.616 208.155 193.446 206.416 191.904C203.982 189.748 204.52 180.159 204.325 176.538C204.122 172.776 205.783 170.305 209.69 170.134C212.006 169.771 220.819 170.542 216.112 174.146C208.778 174.188 207.244 171.148 208.468 180.103C209.846 179.989 214.431 179.755 215.468 180.53C216.555 181.343 216.136 183.214 214.877 183.624C213.466 184.084 210.12 183.731 208.468 183.788C208.454 185.261 207.82 189.192 209.69 189.314Z" fill="#253017"/>
<path d="M224.723 184.987C224.764 186.304 225.536 191.404 223.777 191.886C222.51 192.234 221.333 191.817 221.083 190.434C220.737 188.519 220.292 172.947 221.192 171.721C221.982 170.647 223.698 170.349 224.935 170.133C229.908 169.497 236.119 172.664 234.107 178.408C233.198 180.999 230.937 182.072 228.629 183.172C230.142 185.827 233.564 187.245 234.584 190.19C233.836 192.745 232.103 192.323 230.532 190.795C228.6 188.857 226.687 186.894 224.723 184.987ZM225.46 174.145C224.016 174.467 224.716 178.739 224.723 180.353C226.159 180.142 227.354 179.817 228.629 179.113C233.104 175.86 229.24 174.165 225.46 174.145Z" fill="#253017"/>
<path d="M262.614 191.317C256.881 191.501 252.085 187.001 251.904 181.268C251.723 175.535 256.226 170.742 261.96 170.565C267.689 170.388 272.477 174.886 272.657 180.614C272.838 186.342 268.342 191.132 262.614 191.317ZM261.821 174.612C252.889 176.003 254.797 189.029 263.056 187.29C270.772 185.767 270.248 173.16 261.821 174.612Z" fill="#253017"/>
<path d="M275.699 191.393C275.062 191.084 274.504 190.678 274.245 189.994C273.959 189.239 274.619 172.542 274.893 172.087C275.485 171.105 276.983 170.956 277.995 170.79C286.223 170.161 290.816 176.791 281.977 182.542C283.226 184.019 285.98 186.445 286.833 187.88C287.57 189.118 286.385 192.59 282.966 189.313C281.738 187.924 280.151 186.122 278.716 184.972L277.995 184.393C278.103 187.299 278.898 190.252 275.699 191.393ZM278.399 174.612C278.403 176.434 278.309 178.284 278.399 180.101C279.354 179.532 280.355 178.993 281.263 178.353C284.909 175.616 281.15 174.441 278.399 174.612Z" fill="#253017"/>
</svg>
